<svg width="512" height="512" viewBox="0 0 512 512" fill="none" xmlns="http://www.w3.org/2000/svg">
<g clip-path="url(#clip0_439_18)">
<path d="M0 94.8547C0 61.6525 0 45.0513 6.46159 32.3697C12.1454 21.2147 21.2147 12.1454 32.3697 6.46159C45.0513 0 61.6525 0 94.8547 0H417.145C450.348 0 466.949 0 479.63 6.46159C490.785 12.1454 499.855 21.2147 505.538 32.3697C512 45.0513 512 61.6525 512 94.8547V123.958C512 259.785 512 327.699 485.566 379.578C462.314 425.213 425.213 462.314 379.578 485.566C327.699 512 259.785 512 123.958 512H94.8547C61.6525 512 45.0513 512 32.3697 505.538C21.2147 499.855 12.1454 490.785 6.46159 479.63C0 466.949 0 450.348 0 417.145V94.8547Z" fill="black"/>
<path d="M48.584 200.932C48.584 199.521 48.584 198.815 48.596 198.219C49.2364 166.422 74.8597 140.798 106.657 140.158C107.253 140.146 107.959 140.146 109.37 140.146H210.219C299.488 140.146 371.854 212.512 371.854 301.781C371.854 391.05 299.488 463.416 210.219 463.416H109.37C107.959 463.416 107.253 463.416 106.657 463.404C74.8597 462.764 49.2364 437.14 48.596 405.343C48.584 404.747 48.584 404.041 48.584 402.63V200.932Z" fill="#F5F5F5"/>
<path d="M479.299 102.307C479.299 138.169 450.436 167.241 414.832 167.241C379.228 167.241 350.365 138.169 350.365 102.307C350.365 66.4444 379.228 37.3723 414.832 37.3723C450.436 37.3723 479.299 66.4444 479.299 102.307Z" fill="#F5F5F5"/>
<path d="M474.628 99.9707C474.628 113.387 463.752 124.263 450.336 124.263C436.92 124.263 426.044 113.387 426.044 99.9707C426.044 86.5546 436.92 75.6787 450.336 75.6787C463.752 75.6787 474.628 86.5546 474.628 99.9707Z" fill="black"/>
</g>
<defs>
<clipPath id="clip0_439_18">
<rect width="512" height="512" fill="white"/>
</clipPath>
</defs>
</svg>
