<svg width="409" height="147" viewBox="0 0 409 147" fill="none" xmlns="http://www.w3.org/2000/svg">
<path d="M139.444 70.0645H396.99C403.086 70.0645 408.028 74.9851 408.028 81.0551V114.027H139.444V70.0645Z" fill="white"/>
<path d="M29.5376 103.037H397.004C403.093 103.037 408.028 107.958 408.028 114.028V136.009C408.028 142.079 403.093 147 397.004 147H29.5376V103.037Z" fill="white"/>
<path d="M14.4253 36.3145C14.4253 28.6528 14.4253 24.8219 15.9164 21.8954C17.228 19.3213 19.3208 17.2285 21.895 15.9169C24.8214 14.4258 28.6523 14.4258 36.3141 14.4258H110.686C118.348 14.4258 122.179 14.4258 125.105 15.9169C127.679 17.2285 129.772 19.3213 131.084 21.8954C132.575 24.8219 132.575 28.6528 132.575 36.3145V43.0304C132.575 74.3741 132.575 90.0459 126.475 102.018C121.109 112.548 112.548 121.11 102.017 126.475C90.0454 132.575 74.3736 132.575 43.0299 132.575H36.3141C28.6523 132.575 24.8214 132.575 21.895 131.084C19.3208 129.773 17.228 127.68 15.9164 125.106C14.4253 122.179 14.4253 118.348 14.4253 110.687V36.3145Z" fill="#101820"/>
<path d="M25.6222 60.6467C25.6222 60.3203 25.6222 60.157 25.625 60.019C25.7732 52.662 31.7018 46.7334 39.0588 46.5852C39.1968 46.5825 39.36 46.5825 39.6865 46.5825H63.0204C83.6748 46.5825 100.419 63.3262 100.419 83.9806C100.419 104.635 83.6748 121.379 63.0204 121.379H39.6865C39.36 121.379 39.1968 121.379 39.0588 121.376C31.7018 121.228 25.7732 115.299 25.625 107.942C25.6222 107.804 25.6222 107.641 25.6222 107.315V60.6467Z" fill="white"/>
<path d="M124.954 38.2439C124.954 46.4004 118.289 53.0126 110.066 53.0126C101.844 53.0126 95.1786 46.4004 95.1786 38.2439C95.1786 30.0873 101.844 23.4752 110.066 23.4752C118.289 23.4752 124.954 30.0873 124.954 38.2439Z" fill="white"/>
<path d="M122.982 38.2687C122.982 41.3838 120.436 43.9091 117.296 43.9091C114.156 43.9091 111.61 41.3838 111.61 38.2687C111.61 35.1535 114.156 32.6282 117.296 32.6282C120.436 32.6282 122.982 35.1535 122.982 38.2687Z" fill="#101820"/>
<path d="M110.512 0.000106425C114.082 0.000106425 117.646 -0.012388 120.654 0.233382C123.436 0.460722 126.717 0.963948 130.089 2.40823L131.539 3.08653L132.526 3.61409C137.402 6.34641 141.368 10.466 143.913 15.4609C145.887 19.3348 146.507 23.1663 146.767 26.3459C147.012 29.354 147 32.9176 147 36.4881V43.1705C147 58.526 147.011 70.928 146.192 80.9541C145.359 91.1521 143.595 100.184 139.327 108.56C132.577 121.806 121.806 132.577 108.56 139.327C100.184 143.595 91.1521 145.359 80.9541 146.192C70.928 147.011 58.526 147 43.1705 147H36.4881C32.9176 147 29.354 147.012 26.3459 146.767C23.1663 146.507 19.3348 145.887 15.4609 143.913C10.1331 141.199 5.80131 136.867 3.08653 131.539C1.11267 127.665 0.493194 123.834 0.233382 120.654C-0.012388 117.646 0.000106425 114.082 0.000106425 110.512V36.4881C0.000106425 32.9176 -0.012388 29.354 0.233382 26.3459C0.493194 23.1663 1.11268 19.3348 3.08653 15.4609C5.80131 10.1331 10.1331 5.80131 15.4609 3.08653C19.3348 1.11268 23.1663 0.493194 26.3459 0.233382C29.354 -0.012388 32.9176 0.000106425 36.4881 0.000106425V14.7001L31.4385 14.7216C27.0115 14.7911 24.321 15.0727 22.1362 16.1859C19.574 17.4914 17.4914 19.574 16.1859 22.1362C14.7019 25.049 14.7001 28.8622 14.7001 36.4881V110.512C14.7001 118.138 14.7019 121.951 16.1859 124.864C17.4914 127.426 19.574 129.509 22.1362 130.814C25.049 132.298 28.8622 132.3 36.4881 132.3H43.1705C74.3684 132.3 89.9683 132.299 101.884 126.228C112.366 120.887 120.887 112.366 126.228 101.884C132.299 89.9683 132.3 74.3684 132.3 43.1705V36.4881C132.3 28.8622 132.298 25.049 130.814 22.1362C129.509 19.574 127.426 17.4914 124.864 16.1859C121.951 14.7019 118.138 14.7001 110.512 14.7001H36.4881V0.000106425H110.512Z" fill="white"/>
<path d="M377.314 136.855C372.757 136.855 369.351 135.703 367.097 133.4C364.892 131.048 363.79 127.422 363.79 122.522V106.426H359.527V98.929H359.747C362.785 98.537 364.941 97.5325 366.215 95.9155C367.489 94.2495 368.273 91.7505 368.567 88.4185V88.2715H375.55V97.165H384.443V106.72H375.55V121.42C375.55 123.282 375.991 124.605 376.873 125.389C377.804 126.173 378.931 126.565 380.254 126.565C380.94 126.565 381.65 126.467 382.385 126.271C383.12 126.075 383.806 125.805 384.443 125.462V135.826C382.924 136.267 381.577 136.536 380.401 136.634C379.225 136.781 378.196 136.855 377.314 136.855Z" fill="#101820"/>
<path d="M320.534 135.976V113.999V97.1677H330.603V112.97H331.191C331.485 109.148 332.122 106.012 333.102 103.562C334.082 101.063 335.479 99.2012 337.292 97.9762C339.105 96.7512 341.408 96.1387 344.201 96.1387C348.415 96.1387 351.575 97.5352 353.682 100.328C355.838 103.121 356.916 107.286 356.916 112.823V135.976H345.009V114.367C345.009 111.721 344.593 109.736 343.76 108.413C342.976 107.09 341.702 106.429 339.938 106.429C338.468 106.429 337.169 106.943 336.042 107.972C334.915 109.001 334.033 110.667 333.396 112.97C332.759 115.273 332.441 118.36 332.441 122.231V135.976H320.534Z" fill="#101820"/>
<path d="M299.36 137.005C295.685 137.005 292.598 136.49 290.099 135.461C287.649 134.383 285.665 132.938 284.146 131.125C282.627 129.263 281.524 127.156 280.838 124.804C280.201 122.452 279.883 119.977 279.883 117.38C279.883 114.587 280.226 111.917 280.912 109.369C281.647 106.821 282.749 104.567 284.219 102.607C285.738 100.598 287.674 99.0297 290.026 97.9027C292.427 96.7267 295.293 96.1387 298.625 96.1387C301.957 96.1387 304.799 96.7267 307.151 97.9027C309.552 99.0297 311.463 100.622 312.884 102.68C314.305 104.738 315.212 107.115 315.604 109.81C316.045 112.505 315.996 115.42 315.457 118.556L287.306 118.997V112.529L306.343 112.162L304.799 115.91C305.093 113.656 305.044 111.77 304.652 110.251C304.309 108.683 303.648 107.507 302.668 106.723C301.688 105.89 300.34 105.473 298.625 105.473C296.812 105.473 295.367 105.939 294.289 106.87C293.211 107.801 292.451 109.124 292.01 110.839C291.569 112.505 291.349 114.489 291.349 116.792C291.349 120.761 292.01 123.652 293.333 125.465C294.656 127.278 296.69 128.185 299.434 128.185C300.61 128.185 301.59 128.038 302.374 127.744C303.158 127.45 303.795 127.033 304.285 126.494C304.775 125.906 305.118 125.22 305.314 124.436C305.51 123.603 305.583 122.672 305.534 121.643L316.412 122.231C316.559 123.848 316.388 125.514 315.898 127.229C315.457 128.944 314.599 130.537 313.325 132.007C312.051 133.477 310.263 134.677 307.96 135.608C305.706 136.539 302.839 137.005 299.36 137.005Z" fill="#101820"/>
<path d="M252.308 137.004C249.515 137.004 246.991 136.245 244.737 134.726C242.532 133.207 240.768 130.904 239.445 127.817C238.171 124.73 237.534 120.834 237.534 116.13C237.534 111.671 238.122 107.972 239.298 105.032C240.474 102.043 242.14 99.8134 244.296 98.3434C246.452 96.8734 248.976 96.1384 251.867 96.1384C254.121 96.1384 256.105 96.6039 257.82 97.5349C259.584 98.4659 261.03 99.9359 262.157 101.945C263.284 103.954 264.068 106.575 264.509 109.809H265.17C264.925 108.143 264.68 106.502 264.435 104.885C264.19 103.268 263.994 101.7 263.847 100.181C263.749 98.6619 263.7 97.2409 263.7 95.9179V84.5254H275.607V122.304V135.975H265.244V123.995H264.729C264.19 126.837 263.357 129.238 262.23 131.198C261.152 133.109 259.78 134.554 258.114 135.534C256.497 136.514 254.562 137.004 252.308 137.004ZM256.497 127.523C257.428 127.523 258.335 127.327 259.217 126.935C260.099 126.494 260.883 125.832 261.569 124.95C262.255 124.068 262.794 122.966 263.186 121.643C263.627 120.32 263.847 118.752 263.847 116.939V116.424C263.847 114.954 263.7 113.656 263.406 112.529C263.112 111.353 262.72 110.373 262.23 109.589C261.74 108.756 261.177 108.094 260.54 107.604C259.903 107.065 259.217 106.673 258.482 106.428C257.796 106.183 257.11 106.061 256.424 106.061C254.905 106.061 253.631 106.575 252.602 107.604C251.573 108.633 250.813 109.981 250.323 111.647C249.833 113.264 249.588 115.028 249.588 116.939C249.588 118.85 249.858 120.614 250.397 122.231C250.936 123.848 251.72 125.146 252.749 126.126C253.778 127.057 255.027 127.523 256.497 127.523Z" fill="#101820"/>
<path d="M209.705 137.003C205.491 137.003 202.355 135.533 200.297 132.593C198.288 129.653 197.283 125.145 197.283 119.069V97.166H209.19V118.922C209.19 121.764 209.582 123.748 210.366 124.875C211.199 126.002 212.375 126.566 213.894 126.566C214.972 126.566 215.952 126.296 216.834 125.757C217.765 125.169 218.574 124.312 219.26 123.185C219.946 122.009 220.46 120.514 220.803 118.701C221.195 116.888 221.391 114.708 221.391 112.16V97.166H233.298V118.481V135.974H223.155V120.833H222.641C222.347 124.606 221.685 127.693 220.656 130.094C219.627 132.446 218.206 134.185 216.393 135.312C214.58 136.439 212.351 137.003 209.705 137.003Z" fill="#101820"/>
<path d="M186.099 136.855C181.542 136.855 178.136 135.703 175.882 133.4C173.678 131.048 172.575 127.422 172.575 122.522V106.426H168.312V98.929H168.533C171.571 98.537 173.727 97.5325 175.001 95.9155C176.275 94.2495 177.058 91.7505 177.352 88.4185V88.2715H184.335V97.165H193.228V106.72H184.335V121.42C184.335 123.282 184.776 124.605 185.658 125.389C186.589 126.173 187.716 126.565 189.039 126.565C189.725 126.565 190.435 126.467 191.17 126.271C191.905 126.075 192.591 125.805 193.228 125.462V135.826C191.709 136.267 190.362 136.536 189.186 136.634C188.01 136.781 186.981 136.855 186.099 136.855Z" fill="#101820"/>
<path d="M146.926 137.003C143.496 137.003 140.483 136.611 137.886 135.827C135.338 135.043 133.206 133.916 131.491 132.446C129.776 130.976 128.502 129.212 127.669 127.154C126.885 125.047 126.542 122.72 126.64 120.172L137.665 117.747C137.763 120 138.229 121.838 139.062 123.259C139.944 124.631 141.12 125.66 142.59 126.346C144.06 126.983 145.701 127.301 147.514 127.301C148.984 127.301 150.283 127.13 151.41 126.787C152.537 126.395 153.419 125.88 154.056 125.243C154.742 124.557 155.085 123.773 155.085 122.891C155.085 121.715 154.644 120.76 153.762 120.025C152.88 119.241 151.655 118.58 150.087 118.041C148.568 117.502 146.828 116.963 144.868 116.424C142.761 115.836 140.654 115.199 138.547 114.513C136.489 113.778 134.603 112.871 132.888 111.793C131.173 110.715 129.776 109.319 128.698 107.604C127.669 105.889 127.155 103.757 127.155 101.209C127.155 98.073 127.939 95.4025 129.507 93.1975C131.124 90.9925 133.329 89.3265 136.122 88.1995C138.964 87.0235 142.198 86.4355 145.824 86.4355C149.646 86.4355 153.051 87.097 156.04 88.42C159.029 89.694 161.332 91.5805 162.949 94.0795C164.566 96.5785 165.203 99.641 164.86 103.267L153.982 105.031C154.031 103.561 153.884 102.263 153.541 101.136C153.198 100.009 152.659 99.053 151.924 98.269C151.238 97.485 150.356 96.897 149.278 96.505C148.2 96.064 146.926 95.8435 145.456 95.8435C143.937 95.8435 142.663 96.0395 141.634 96.4315C140.654 96.8235 139.895 97.3625 139.356 98.0485C138.866 98.7345 138.621 99.5185 138.621 100.401C138.621 101.43 139.013 102.287 139.797 102.973C140.581 103.659 141.708 104.272 143.178 104.811C144.648 105.301 146.387 105.815 148.396 106.354C150.503 106.942 152.61 107.604 154.717 108.339C156.873 109.025 158.858 109.956 160.671 111.132C162.484 112.259 163.929 113.729 165.007 115.542C166.134 117.355 166.698 119.657 166.698 122.45C166.698 125.684 165.84 128.379 164.125 130.535C162.459 132.691 160.132 134.308 157.143 135.386C154.203 136.464 150.797 137.003 146.926 137.003Z" fill="#101820"/>
<path d="M384.443 97.1687H375.55V88.2719H368.566V88.419C368.272 91.7505 367.489 94.2501 366.215 95.9161C365.1 97.3308 363.311 98.2779 360.846 98.7549L359.748 98.9308H359.525V106.428H363.789V122.524C363.789 127.424 364.893 131.05 367.098 133.402C369.211 135.561 372.335 136.708 376.472 136.844L377.315 136.858C378.197 136.858 379.226 136.782 380.402 136.635C381.577 136.537 382.924 136.269 384.443 135.828V125.463C383.806 125.806 383.121 126.078 382.386 126.274C381.652 126.47 380.94 126.569 380.255 126.569C378.932 126.569 377.805 126.175 376.874 125.391C376.102 124.705 375.667 123.606 375.571 122.093L375.55 121.422V106.722H384.443V97.1687ZM382.9 117.945L390.099 114.072H382.9V117.945ZM382.9 89.8187H391.793V141.348L386.492 142.887C384.753 143.392 383.01 143.758 381.31 143.924L381.313 143.932C379.931 144.104 378.585 144.208 377.315 144.208C371.969 144.208 366.677 142.934 362.637 139.302L361.844 138.545L361.736 138.43C359.049 135.563 357.589 132.006 356.916 128.219V112.823C356.916 107.286 355.839 103.12 353.683 100.327C353.23 99.7266 352.725 99.1939 352.175 98.7226V91.5808H359.188C359.874 91.468 360.283 91.3255 360.494 91.2327C360.682 90.8447 361.028 89.9057 361.216 88.0386V80.9219H382.9V89.8187Z" fill="white"/>
<path d="M313.182 89.8171H337.414C339.6 89.0941 341.898 88.7871 344.201 88.7871C350.165 88.7872 355.711 90.8645 359.496 95.8356H359.5L359.504 95.8428C359.518 95.8621 359.536 95.8808 359.55 95.9002H359.547C360.211 96.7683 360.792 97.6856 361.298 98.6457C360.809 98.7558 360.294 98.8587 359.748 98.9292H359.525V106.426H363.781C363.783 106.435 363.787 106.443 363.789 106.451V122.522C363.789 124.377 363.95 126.05 364.266 127.54V143.323H313.182V132.155C313.229 132.103 313.28 132.056 313.326 132.004C314.6 130.534 315.458 128.942 315.899 127.227C316.389 125.512 316.559 123.845 316.412 122.228L313.182 122.052V118.585L315.457 118.553C315.996 115.417 316.046 112.502 315.605 109.807C315.241 107.309 314.429 105.089 313.182 103.139V89.8171ZM320.532 135.973H332.44V122.228C332.44 118.358 332.758 115.272 333.395 112.969C334.032 110.666 334.916 108.999 336.043 107.97C337.17 106.941 338.468 106.426 339.937 106.426C341.701 106.426 342.975 107.088 343.759 108.411C344.592 109.734 345.008 111.719 345.008 114.365V135.973H356.916V112.822C356.916 107.632 355.968 103.646 354.074 100.867L353.682 100.325C351.707 97.7072 348.806 96.3154 344.979 96.1515L344.201 96.1371C341.408 96.1371 339.105 96.7498 337.292 97.9746C335.479 99.1995 334.08 101.06 333.1 103.559C332.12 106.009 331.485 109.147 331.191 112.969H330.602V97.1671H320.532V135.973Z" fill="white"/>
<path d="M298.625 88.7871C302.738 88.7871 306.705 89.5043 310.271 91.2491L310.275 91.2455C310.322 91.2677 310.368 91.2947 310.415 91.3173C310.422 91.321 310.432 91.3243 310.44 91.328H310.436C313.432 92.7619 316.018 94.7626 318.07 97.3394L318.931 98.5022C319.533 99.3737 320.063 100.28 320.532 101.212V134.624C320.031 135.387 319.484 136.121 318.881 136.817C316.676 139.361 313.835 141.145 310.763 142.394L310.767 142.398C310.758 142.401 310.747 142.405 310.738 142.408C310.73 142.412 310.721 142.416 310.713 142.419L310.709 142.415C307.285 143.818 303.402 144.353 299.361 144.353C295.589 144.353 291.974 143.897 288.688 142.778L287.303 142.254L287.22 142.222L287.137 142.186C284.21 140.897 281.587 139.142 279.414 136.856L278.513 135.844L278.481 135.805L278.449 135.769C277.342 134.412 276.398 132.96 275.606 131.426V102.712C276.37 101.122 277.275 99.6101 278.338 98.1935L278.356 98.172C280.608 95.1934 283.479 92.8859 286.85 91.2706C290.46 89.5159 294.465 88.7871 298.625 88.7871ZM298.625 105.472C300.34 105.472 301.687 105.888 302.666 106.721C303.646 107.505 304.308 108.681 304.651 110.249C304.803 110.838 304.9 111.483 304.949 112.183L291.677 112.441C291.771 111.878 291.877 111.342 292.011 110.837C292.452 109.122 293.212 107.799 294.29 106.868C295.368 105.937 296.813 105.472 298.625 105.472ZM279.899 118.345C279.968 120.591 280.282 122.743 280.839 124.801C281.525 127.153 282.626 129.26 284.144 131.121C285.663 132.934 287.648 134.382 290.098 135.46C292.285 136.36 294.922 136.866 298.008 136.978L299.361 137.003C302.404 137.003 304.979 136.646 307.084 135.934L307.96 135.607C309.975 134.793 311.596 133.77 312.823 132.543L313.325 132.004C314.599 130.534 315.458 128.942 315.899 127.227C316.389 125.512 316.559 123.845 316.412 122.228L305.534 121.64C305.583 122.669 305.511 123.602 305.315 124.435C305.119 125.219 304.775 125.904 304.285 126.492C303.795 127.031 303.156 127.447 302.372 127.741C301.588 128.034 300.608 128.182 299.433 128.182C296.689 128.182 294.655 127.274 293.332 125.462C292.26 123.992 291.629 121.813 291.426 118.926L315.457 118.553C315.996 115.417 316.045 112.502 315.604 109.807C315.261 107.449 314.524 105.336 313.394 103.466L312.884 102.68C311.463 100.622 309.553 99.0262 307.153 97.8992C305.095 96.8704 302.661 96.2945 299.853 96.1658L298.625 96.1371C295.294 96.1371 292.427 96.7236 290.026 97.8992L289.162 98.3442C287.195 99.4267 285.548 100.847 284.22 102.604C282.75 104.564 281.646 106.818 280.911 109.366C280.225 111.914 279.884 114.587 279.884 117.38L279.899 118.345Z" fill="white"/>
<path d="M275.606 84.5238H263.699V95.9149C263.699 97.2376 263.748 98.6598 263.846 100.178C263.993 101.697 264.189 103.266 264.434 104.883C264.679 106.5 264.925 108.142 265.17 109.807H264.51C264.069 106.574 263.282 103.953 262.155 101.944C261.028 99.9352 259.584 98.4644 257.82 97.5334C256.319 96.7188 254.612 96.2607 252.699 96.1589L251.866 96.1374C248.976 96.1375 246.453 96.8715 244.297 98.3409L243.511 98.9295C241.732 100.382 240.327 102.415 239.298 105.031C238.122 107.97 237.536 111.669 237.536 116.127L237.565 117.854C237.704 121.793 238.33 125.115 239.445 127.816L233.297 130.35V100.448C234.877 97.1947 237.105 94.3489 240.156 92.2686C243.662 89.8778 247.664 88.7875 251.866 88.7874C253.381 88.7874 254.882 88.9367 256.349 89.2503V77.1738H282.956V104.525C282.102 106 281.417 107.612 280.911 109.366C280.225 111.914 279.884 114.587 279.884 117.38C279.885 119.976 280.202 122.45 280.839 124.802C281.33 126.485 282.039 128.039 282.956 129.471V143.324H258.689C256.63 144.035 254.476 144.354 252.308 144.354C248.094 144.354 244.132 143.179 240.629 140.819L240.597 140.797L240.568 140.776C237.361 138.566 234.999 135.519 233.297 132.03V130.35L239.445 127.816C240.768 130.903 242.534 133.206 244.739 134.725C246.711 136.054 248.889 136.802 251.274 136.968L252.308 137.004C254.562 137.004 256.497 136.512 258.114 135.532C259.78 134.552 261.153 133.108 262.231 131.197C263.358 129.237 264.19 126.836 264.729 123.994H265.245V135.974H275.606V84.5238ZM256.424 106.061C257.109 106.061 257.795 106.182 258.48 106.427C259.215 106.672 259.903 107.065 260.54 107.604C261.177 108.094 261.741 108.756 262.231 109.588C262.72 110.372 263.114 111.352 263.408 112.528C263.702 113.654 263.846 114.952 263.846 116.422V116.938C263.846 118.75 263.626 120.317 263.185 121.64C262.794 122.962 262.256 124.067 261.57 124.949C260.884 125.831 260.098 126.492 259.216 126.933C258.334 127.325 257.427 127.522 256.496 127.522C255.21 127.522 254.092 127.165 253.144 126.452L252.749 126.126C251.849 125.268 251.135 124.166 250.61 122.821L250.398 122.228C249.994 121.015 249.738 119.72 249.637 118.342L249.587 116.938C249.587 115.027 249.833 113.262 250.323 111.645C250.813 109.979 251.573 108.633 252.602 107.604C253.631 106.575 254.905 106.061 256.424 106.061Z" fill="white"/>
<path d="M209.191 97.1723H197.283V119.075L197.33 121.279C197.549 126.252 198.54 130.025 200.298 132.598C202.227 135.353 205.102 136.818 208.925 136.991L209.704 137.009C212.35 137.009 214.581 136.445 216.394 135.318C218.206 134.191 219.628 132.452 220.657 130.1C221.686 127.699 222.344 124.61 222.638 120.837H223.155V135.979H233.297V97.1723H221.389V112.163C221.389 114.711 221.193 116.892 220.801 118.705C220.458 120.518 219.944 122.012 219.258 123.188C218.572 124.314 217.766 125.173 216.835 125.761C215.953 126.3 214.97 126.572 213.892 126.572L213.34 126.544C212.086 126.42 211.093 125.867 210.364 124.882C209.678 123.896 209.295 122.251 209.209 119.951L209.191 118.928V97.1723ZM240.647 102.294C240.144 103.123 239.691 104.036 239.298 105.035C238.122 107.975 237.536 111.674 237.536 116.132C237.536 120.836 238.171 124.734 239.445 127.821C239.81 128.672 240.216 129.458 240.647 130.19V143.329H216.473C214.294 144.048 212.007 144.359 209.704 144.359C203.955 144.359 198.666 142.355 194.99 137.766L194.276 136.811L194.251 136.779L194.229 136.743C193.868 136.214 193.536 135.665 193.228 135.099V125.467C192.591 125.81 191.906 126.082 191.171 126.278C190.93 126.342 190.689 126.389 190.453 126.432C190.086 124.072 189.933 121.598 189.933 119.075V106.726H193.228V97.1723H189.933V89.8223H240.647V102.294Z" fill="white"/>
<path d="M193.228 97.1687H184.335V88.2719H177.351V88.419C177.057 91.7505 176.274 94.2501 175 95.9161C173.885 97.3308 172.096 98.2779 169.631 98.7549L168.533 98.9308H168.31V106.428H172.574V122.524C172.574 127.424 173.678 131.05 175.883 133.402C177.996 135.561 181.12 136.708 185.257 136.844L186.1 136.858C186.982 136.858 188.012 136.782 189.187 136.635C190.362 136.537 191.71 136.269 193.228 135.828V125.463C192.591 125.806 191.906 126.078 191.171 126.274C190.437 126.47 189.725 126.569 189.04 126.569C187.717 126.569 186.59 126.175 185.659 125.391C184.887 124.705 184.452 123.606 184.356 122.093L184.335 121.422V106.722H193.228V97.1687ZM191.685 89.8187H200.578V97.1687H197.283V114.072H191.685V117.945L197.283 114.934V119.071C197.283 125.147 198.289 129.655 200.298 132.594C200.388 132.723 200.484 132.845 200.578 132.968V141.348L195.277 142.887C193.539 143.392 191.796 143.758 190.095 143.924L190.098 143.932C188.716 144.104 187.37 144.208 186.1 144.208C180.754 144.208 175.462 142.934 171.422 139.302L170.629 138.545L170.521 138.43C167.773 135.499 166.303 131.847 165.651 127.965C166.345 126.344 166.699 124.508 166.699 122.452C166.699 119.85 166.202 117.676 165.224 115.924V113.778H163.745C162.948 112.837 162.02 112.019 160.96 111.323V103.898L164.862 103.266C165.204 99.6408 164.565 96.5773 162.949 94.0786C162.374 93.1903 161.709 92.3825 160.96 91.649V91.5808H167.973C168.659 91.468 169.068 91.3255 169.279 91.2327C169.467 90.8447 169.813 89.9057 170.001 88.0386V80.9219H191.685V89.8187Z" fill="white"/>
<path d="M119.858 99.5656C120.108 95.7521 121.254 92.1234 123.518 88.939L123.547 88.8959L123.579 88.8529C126.079 85.4439 129.426 82.9807 133.341 81.3952C137.21 79.7994 141.414 79.0841 145.823 79.084C150.462 79.084 154.874 79.8881 158.919 81.6608L158.922 81.6572C162.867 83.3386 166.192 85.9014 168.641 89.3804L169.122 90.0874C170.717 92.5537 171.648 95.2401 172.054 98.0332C171.053 98.449 169.883 98.7563 168.533 98.9304H168.311V106.428H171.946L171.645 109.614L170.033 109.873C170.466 110.443 170.871 111.039 171.246 111.66C171.77 112.502 172.211 113.377 172.574 114.273V122.524C172.574 124.753 172.807 126.718 173.263 128.42C172.6 130.812 171.5 133.072 169.879 135.11L169.876 135.106C167.227 138.499 163.686 140.841 159.637 142.302L159.633 142.298C155.728 143.724 151.45 144.354 146.928 144.355C143.456 144.355 140.144 144.01 137.066 143.228L135.763 142.865L135.724 142.854V142.851C132.802 141.952 130.085 140.644 127.706 138.835L126.709 138.027C124.441 136.084 122.641 133.754 121.368 131.079L120.855 129.913L120.816 129.816L120.78 129.719C119.615 126.589 119.167 123.277 119.298 119.889L119.513 114.215L123.73 113.286C123.524 113.023 123.318 112.759 123.123 112.486L122.434 111.452L122.395 111.384C120.517 108.254 119.804 104.729 119.804 101.209L119.858 99.5656ZM127.179 102.146C127.291 104.284 127.797 106.104 128.697 107.605C129.775 109.32 131.174 110.715 132.889 111.793C134.604 112.871 136.49 113.778 138.548 114.513C140.655 115.199 142.762 115.835 144.868 116.423C146.828 116.961 148.568 117.502 150.087 118.041L151.199 118.468C152.246 118.918 153.1 119.438 153.762 120.026L154.074 120.313C154.748 121.004 155.086 121.865 155.086 122.893L155.068 123.216C154.993 123.967 154.656 124.643 154.056 125.244L153.532 125.7C152.963 126.131 152.255 126.493 151.411 126.787L150.532 127.013C149.622 127.206 148.615 127.3 147.513 127.3C145.701 127.3 144.059 126.983 142.589 126.346C141.12 125.66 139.943 124.631 139.062 123.259C138.229 121.838 137.764 120.001 137.666 117.747L126.641 120.173C126.543 122.72 126.887 125.047 127.671 127.153C128.504 129.211 129.778 130.977 131.493 132.447C133.207 133.916 135.337 135.044 137.884 135.827C140.157 136.514 142.751 136.901 145.661 136.987L146.928 137.005C150.798 137.004 154.203 136.464 157.142 135.386C159.757 134.443 161.867 133.088 163.469 131.32L164.126 130.534C165.626 128.648 166.469 126.35 166.656 123.64L166.699 122.452C166.699 120.007 166.267 117.937 165.404 116.243L165.009 115.543C163.931 113.73 162.483 112.26 160.67 111.133C158.857 109.957 156.872 109.026 154.716 108.34C152.609 107.605 150.503 106.944 148.396 106.356C146.387 105.817 144.648 105.299 143.178 104.809C142.076 104.405 141.167 103.961 140.45 103.474L139.797 102.971C139.014 102.286 138.62 101.43 138.62 100.402C138.62 99.5198 138.866 98.7335 139.356 98.0475C139.76 97.5329 140.289 97.1011 140.942 96.752L141.635 96.4325C142.664 96.0405 143.938 95.844 145.457 95.844L146.523 95.8834C147.552 95.9662 148.471 96.1736 149.279 96.5043L150.051 96.8345C150.786 97.202 151.409 97.6819 151.924 98.27C152.659 99.0537 153.2 100.008 153.543 101.134C153.886 102.261 154.033 103.561 153.984 105.031L164.862 103.266C165.205 99.6404 164.566 96.5769 162.949 94.0783C161.332 91.5799 159.029 89.6924 156.04 88.4186C153.052 87.0958 149.645 86.434 145.823 86.434C142.198 86.4341 138.964 87.0239 136.122 88.1997L135.103 88.6483C132.788 89.7523 130.923 91.2695 129.508 93.199C127.94 95.4039 127.154 98.0735 127.154 101.209L127.179 102.146Z" fill="white"/>
<path d="M299.977 84.377V48.5091V34.6911H310.414V46.6716H310.929C311.468 43.7806 312.276 41.3796 313.354 39.4686C314.432 37.5086 315.804 36.0631 317.47 35.1321C319.185 34.1521 321.243 33.6621 323.644 33.6621C326.682 33.6621 329.255 34.4461 331.362 36.0141C333.518 37.5331 335.135 39.8116 336.213 42.8496C337.339 45.8386 337.903 49.5381 337.903 53.9481C337.903 58.7011 337.266 62.5966 335.992 65.6346C334.767 68.6726 333.076 70.9266 330.92 72.3966C328.765 73.8176 326.315 74.5281 323.571 74.5281C321.366 74.5281 319.406 74.0626 317.691 73.1316C316.025 72.2006 314.628 70.7796 313.501 68.8686C312.423 66.9086 311.664 64.4586 311.223 61.5186H310.561C310.806 62.9396 311.027 64.4341 311.223 66.0021C311.419 67.5211 311.566 69.0401 311.664 70.5591C311.811 72.0291 311.884 73.4501 311.884 74.8221V84.377H299.977ZM319.087 64.7526C320.655 64.7526 321.929 64.2626 322.909 63.2826C323.938 62.3026 324.673 61.0286 325.114 59.4606C325.604 57.8436 325.849 56.1531 325.849 54.3891C325.849 52.4291 325.58 50.6651 325.041 49.0971C324.551 47.4801 323.791 46.2061 322.762 45.2751C321.782 44.2951 320.557 43.8051 319.087 43.8051C318.156 43.8051 317.25 44.0256 316.368 44.4666C315.486 44.8586 314.702 45.4956 314.016 46.3776C313.33 47.2106 312.766 48.2886 312.325 49.6116C311.933 50.9346 311.737 52.5271 311.737 54.3891V54.8301C311.737 56.3001 311.884 57.5741 312.178 58.6521C312.472 59.7301 312.864 60.6611 313.354 61.4451C313.844 62.2291 314.408 62.8661 315.045 63.3561C315.682 63.8461 316.343 64.2136 317.029 64.4586C317.715 64.6546 318.401 64.7526 319.087 64.7526Z" fill="#101820"/>
<path d="M278.803 74.5281C275.128 74.5281 272.041 74.0136 269.542 72.9846C267.092 71.9066 265.108 70.4611 263.589 68.6481C262.07 66.7861 260.967 64.6791 260.281 62.3271C259.644 59.9751 259.326 57.5006 259.326 54.9036C259.326 52.1106 259.669 49.4401 260.355 46.8921C261.09 44.3441 262.192 42.0901 263.662 40.1301C265.181 38.1211 267.117 36.5531 269.469 35.4261C271.87 34.2501 274.736 33.6621 278.068 33.6621C281.4 33.6621 284.242 34.2501 286.594 35.4261C288.995 36.5531 290.906 38.1456 292.327 40.2036C293.748 42.2616 294.655 44.6381 295.047 47.3331C295.488 50.0281 295.439 52.9436 294.9 56.0796L266.749 56.5206V50.0526L285.786 49.6851L284.242 53.4336C284.536 51.1796 284.487 49.2931 284.095 47.7741C283.752 46.2061 283.091 45.0301 282.111 44.2461C281.131 43.4131 279.783 42.9966 278.068 42.9966C276.255 42.9966 274.81 43.4621 273.732 44.3931C272.654 45.3241 271.894 46.6471 271.453 48.3621C271.012 50.0281 270.792 52.0126 270.792 54.3156C270.792 58.2846 271.453 61.1756 272.776 62.9886C274.099 64.8016 276.133 65.7081 278.877 65.7081C280.053 65.7081 281.033 65.5611 281.817 65.2671C282.601 64.9731 283.238 64.5566 283.728 64.0176C284.218 63.4296 284.561 62.7436 284.757 61.9596C284.953 61.1266 285.026 60.1956 284.977 59.1666L295.855 59.7546C296.002 61.3716 295.831 63.0376 295.341 64.7526C294.9 66.4676 294.042 68.0601 292.768 69.5301C291.494 71.0001 289.706 72.2006 287.403 73.1316C285.149 74.0626 282.282 74.5281 278.803 74.5281Z" fill="#101820"/>
<path d="M239.326 74.5281C235.651 74.5281 232.564 74.0136 230.065 72.9846C227.615 71.9066 225.63 70.4611 224.111 68.6481C222.592 66.7861 221.49 64.6791 220.804 62.3271C220.167 59.9751 219.848 57.5006 219.848 54.9036C219.848 52.1106 220.191 49.4401 220.877 46.8921C221.612 44.3441 222.715 42.0901 224.185 40.1301C225.704 38.1211 227.639 36.5531 229.991 35.4261C232.392 34.2501 235.259 33.6621 238.591 33.6621C241.923 33.6621 244.765 34.2501 247.117 35.4261C249.518 36.5531 251.429 38.1456 252.85 40.2036C254.271 42.2616 255.177 44.6381 255.569 47.3331C256.01 50.0281 255.961 52.9436 255.422 56.0796L227.272 56.5206V50.0526L246.308 49.6851L244.765 53.4336C245.059 51.1796 245.01 49.2931 244.618 47.7741C244.275 46.2061 243.613 45.0301 242.633 44.2461C241.653 43.4131 240.306 42.9966 238.591 42.9966C236.778 42.9966 235.332 43.4621 234.254 44.3931C233.176 45.3241 232.417 46.6471 231.976 48.3621C231.535 50.0281 231.314 52.0126 231.314 54.3156C231.314 58.2846 231.976 61.1756 233.299 62.9886C234.622 64.8016 236.655 65.7081 239.399 65.7081C240.575 65.7081 241.555 65.5611 242.339 65.2671C243.123 64.9731 243.76 64.5566 244.25 64.0176C244.74 63.4296 245.083 62.7436 245.279 61.9596C245.475 61.1266 245.549 60.1956 245.5 59.1666L256.378 59.7546C256.525 61.3716 256.353 63.0376 255.863 64.7526C255.422 66.4676 254.565 68.0601 253.291 69.5301C252.017 71.0001 250.228 72.2006 247.925 73.1316C245.671 74.0626 242.805 74.5281 239.326 74.5281Z" fill="#101820"/>
<path d="M181.103 73.5041V63.5816H193.672C195.534 63.5816 197.249 63.1896 198.817 62.4056C200.434 61.6216 201.732 60.2251 202.712 58.2161C203.692 56.1581 204.182 53.2181 204.182 49.3961C204.182 46.6521 203.913 44.3491 203.374 42.4871C202.835 40.6251 202.051 39.1551 201.022 38.0771C200.042 36.9501 198.817 36.1416 197.347 35.6516C195.926 35.1616 194.284 34.9166 192.422 34.9166H181.103V24.9941H191.908C197.641 24.9941 202.32 25.9496 205.946 27.8606C209.572 29.7716 212.243 32.5156 213.958 36.0926C215.673 39.6206 216.53 43.8591 216.53 48.8081C216.53 52.6301 216.089 55.9376 215.207 58.7306C214.374 61.5236 213.198 63.8756 211.679 65.7866C210.16 67.6976 208.445 69.2166 206.534 70.3436C204.623 71.4706 202.59 72.2791 200.434 72.7691C198.278 73.2591 196.146 73.5041 194.039 73.5041H181.103ZM175.664 73.5041V24.9941H187.571V73.5041H175.664Z" fill="#101820"/>
<path d="M294.901 56.0748C295.439 52.9392 295.489 50.0235 295.048 47.3288C294.656 44.6343 293.748 42.259 292.327 40.2013C292.076 39.8377 291.805 39.4915 291.523 39.1569V26.2334H316.829C319.045 25.518 321.347 25.207 323.644 25.207C328.132 25.2071 332.48 26.3771 336.226 29.1009H336.23C340.061 31.8003 342.582 35.6125 344.118 39.8639H344.122C344.129 39.8837 344.132 39.9052 344.14 39.925C344.151 39.9567 344.168 39.9865 344.179 40.0183H344.172C345.725 44.2096 346.354 48.9359 346.354 53.943C346.354 59.3164 345.649 64.3877 343.828 68.7866L343.831 68.7902C342.141 72.9826 339.533 76.7507 335.681 79.3773L335.627 79.4132L335.57 79.4491C331.945 81.8379 327.857 82.9769 323.568 82.9769C322.483 82.9769 321.404 82.8908 320.335 82.7365V92.8248H291.523V70.7317C291.98 70.3504 292.399 69.9527 292.769 69.5259C294.043 68.056 294.901 66.4639 295.342 64.7491C295.832 63.0341 296.002 61.3668 295.855 59.7498L291.523 59.513V56.1251L294.901 56.0748ZM319.086 43.8009C320.556 43.8009 321.781 44.2924 322.761 45.2724C323.79 46.2033 324.55 47.4777 325.04 49.0945L325.23 49.6902C325.643 51.1049 325.847 52.6698 325.847 54.3845C325.847 56.1483 325.601 57.8387 325.112 59.4555C324.671 61.0233 323.937 62.2977 322.908 63.2777C321.928 64.2577 320.654 64.7491 319.086 64.7491C318.4 64.7491 317.715 64.6506 317.029 64.4548C316.344 64.21 315.681 63.8426 315.045 63.353C314.408 62.863 313.844 62.2242 313.354 61.4402C312.865 60.6562 312.471 59.726 312.177 58.648C311.883 57.5701 311.736 56.2959 311.736 54.8259V54.3845C311.736 52.5228 311.933 50.9305 312.324 49.6077C312.765 48.2848 313.329 47.2071 314.015 46.3741C314.701 45.4923 315.484 44.8533 316.366 44.4613C317.247 44.0203 318.155 43.801 319.086 43.8009ZM299.975 84.373H311.883V74.8195C311.883 73.4477 311.811 72.0256 311.664 70.5559C311.566 69.0369 311.419 67.517 311.223 65.998C311.027 64.4303 310.804 62.9364 310.559 61.5155H311.223C311.664 64.4551 312.424 66.9058 313.502 68.8655C314.628 70.7759 316.024 72.1983 317.69 73.1291C319.19 73.9434 320.878 74.4018 322.754 74.5036L323.568 74.5252C325.969 74.5252 328.146 73.9799 330.097 72.8922L330.918 72.3934C333.074 70.9237 334.764 68.6691 335.989 65.632C337.104 62.9739 337.734 59.6582 337.874 55.6872L337.902 53.943C337.902 49.5339 337.339 45.8349 336.212 42.8463C335.134 39.8083 333.516 37.5285 331.36 36.0095C329.516 34.6378 327.316 33.8661 324.76 33.6947L323.644 33.6588C321.244 33.6588 319.186 34.1474 317.471 35.1266C315.805 36.0576 314.432 37.5056 313.354 39.4656C312.277 41.3766 311.467 43.7775 310.928 46.6684H310.412V34.6888H299.975V84.373Z" fill="white"/>
<path d="M278.068 25.207C282.299 25.207 286.435 25.9408 290.181 27.7695H290.184C290.208 27.7806 290.233 27.7942 290.256 27.8054C290.295 27.8247 290.336 27.8432 290.375 27.8628H290.371C293.959 29.5831 296.999 32.09 299.282 35.3958C299.524 35.7465 299.753 36.1052 299.975 36.4653V74.055C299.711 74.3975 299.441 74.7358 299.157 75.0635C296.798 77.7846 293.781 79.6663 290.572 80.9636L290.568 80.96C286.969 82.4345 282.932 82.9769 278.804 82.9769C274.949 82.9769 271.207 82.5095 267.776 81.3404L266.326 80.7949L266.232 80.759L266.139 80.716C263.093 79.3759 260.345 77.5412 258.061 75.1389L257.109 74.073L257.038 73.9868C255.75 72.4087 254.675 70.7062 253.797 68.9014C254.793 67.6072 255.485 66.2247 255.864 64.7491C256.354 63.0341 256.524 61.3668 256.377 59.7498L251.145 59.4663C251.013 58.3682 250.929 57.2603 250.894 56.143L255.423 56.0748C255.962 52.9392 256.011 50.0235 255.57 47.3288C255.235 45.0301 254.521 42.9661 253.438 41.1308C254.343 38.9711 255.491 36.9357 256.901 35.0549L256.919 35.0297C259.269 31.9215 262.261 29.5106 265.762 27.8233C269.567 25.9626 273.762 25.207 278.068 25.207ZM278.068 33.6588C274.737 33.6588 271.87 34.2453 269.47 35.4209L268.605 35.866C266.639 36.9484 264.991 38.3687 263.663 40.1259C262.193 42.0858 261.089 44.3396 260.354 46.8873C259.668 49.4353 259.327 52.1083 259.327 54.9013C259.328 57.4977 259.645 59.9715 260.282 62.323C260.968 64.6744 262.069 66.7814 263.587 68.643C265.106 70.4559 267.091 71.904 269.541 72.982C271.728 73.8822 274.365 74.3874 277.451 74.5001L278.804 74.5252C282.283 74.5251 285.149 74.06 287.403 73.1291C289.418 72.3145 291.039 71.2915 292.266 70.0642L292.768 69.5259C294.042 68.056 294.901 66.4639 295.342 64.7491C295.832 63.0341 296.002 61.3668 295.855 59.7498L284.977 59.1613C285.026 60.1903 284.954 61.124 284.758 61.957C284.562 62.7405 284.218 63.4257 283.728 64.0134C283.238 64.5524 282.599 64.9683 281.815 65.2623C281.031 65.556 280.051 65.7038 278.876 65.7038C276.132 65.7036 274.098 64.7962 272.775 62.9834C271.703 61.5134 271.072 59.3345 270.869 56.4481L294.9 56.0748C295.439 52.9392 295.488 50.0235 295.047 47.3288C294.704 44.9712 293.967 42.8574 292.837 40.9873L292.327 40.2013C290.906 38.1435 288.996 36.5479 286.596 35.4209C284.538 34.3921 282.104 33.8162 279.296 33.6875L278.068 33.6588ZM278.068 42.9934C279.783 42.9935 281.13 43.4098 282.109 44.2424C283.089 45.0263 283.751 46.2023 284.094 47.7702C284.246 48.3596 284.343 49.0046 284.392 49.7046L271.12 49.963C271.214 49.3993 271.32 48.8639 271.454 48.3588C271.895 46.6438 272.655 45.3205 273.733 44.3895C274.811 43.4588 276.256 42.9934 278.068 42.9934Z" fill="white"/>
<path d="M238.591 25.207C242.822 25.207 246.957 25.9408 250.703 27.7695H250.707C250.731 27.7806 250.755 27.7942 250.779 27.8054C250.818 27.8247 250.858 27.8432 250.897 27.8628H250.894C254.481 29.5831 257.522 32.09 259.805 35.3958C261.095 37.265 262.078 39.2759 262.794 41.3856C261.751 43.0352 260.936 44.8687 260.354 46.8873C259.668 49.4353 259.328 52.1083 259.328 54.9013C259.328 57.4977 259.645 59.9715 260.282 62.323C260.957 64.6369 262.035 66.7137 263.516 68.5533C262.651 70.9665 261.342 73.1449 259.679 75.0635C257.321 77.7846 254.303 79.6663 251.095 80.9636L251.091 80.96C247.491 82.4345 243.454 82.9769 239.327 82.9769C235.471 82.9769 231.73 82.5095 228.298 81.3404L226.848 80.7949L226.755 80.759L226.662 80.716C223.616 79.3759 220.868 77.5412 218.583 75.1389L217.632 74.073L217.56 73.9868C215.593 71.5752 214.102 68.8826 213.092 65.9586L212.69 64.6881L212.665 64.6127L212.622 64.4548C213.691 62.812 214.556 60.904 215.206 58.7234C216.088 55.9307 216.53 52.6218 216.53 48.8002C216.53 45.0619 216.037 41.7292 215.059 38.8016C215.747 37.4967 216.532 36.2443 217.424 35.0549L217.442 35.0297C219.792 31.9215 222.784 29.5106 226.285 27.8233C230.089 25.9626 234.285 25.207 238.591 25.207ZM238.591 33.6588C235.26 33.6588 232.393 34.2453 229.992 35.4209L229.127 35.866C227.161 36.9484 225.514 38.3687 224.185 40.1259C222.715 42.0858 221.611 44.3396 220.876 46.8873C220.19 49.4353 219.85 52.1083 219.85 54.9013C219.85 57.4977 220.168 59.9715 220.805 62.323C221.491 64.6744 222.592 66.7814 224.11 68.643C225.629 70.4559 227.614 71.904 230.064 72.982C232.25 73.8822 234.887 74.3874 237.974 74.5001L239.327 74.5252C242.37 74.5251 244.944 74.1681 247.05 73.4557L247.926 73.1291C249.941 72.3145 251.561 71.2915 252.789 70.0642L253.291 69.5259C254.565 68.056 255.423 66.4639 255.864 64.7491C256.354 63.0341 256.524 61.3668 256.377 59.7498L245.5 59.1613C245.549 60.1903 245.477 61.124 245.281 61.957C245.085 62.7405 244.74 63.4257 244.251 64.0134C243.761 64.5524 243.122 64.9683 242.338 65.2623C241.554 65.556 240.574 65.7038 239.399 65.7038C236.655 65.7036 234.62 64.7962 233.298 62.9834C232.225 61.5134 231.595 59.3345 231.392 56.4481L255.423 56.0748C255.962 52.9392 256.011 50.0235 255.57 47.3288C255.227 44.9712 254.49 42.8574 253.359 40.9873L252.85 40.2013C251.429 38.1435 249.519 36.5479 247.118 35.4209C245.06 34.3921 242.626 33.8162 239.818 33.6875L238.591 33.6588ZM238.591 42.9934C240.306 42.9935 241.652 43.4098 242.632 44.2424C243.612 45.0263 244.274 46.2023 244.617 47.7702C244.769 48.3596 244.866 49.0046 244.915 49.7046L231.643 49.963C231.736 49.3993 231.843 48.8639 231.977 48.3588C232.418 46.6438 233.178 45.3205 234.256 44.3895C235.334 43.4588 236.778 42.9934 238.591 42.9934Z" fill="white"/>
<path d="M167.212 16.5371H196.024V16.6878C201.06 17.0704 205.765 18.2044 209.888 20.3772C215.061 23.104 219.053 27.1619 221.58 32.4322H221.576C222.758 34.8707 223.6 37.4615 224.153 40.1698C222.698 42.1202 221.607 44.3614 220.877 46.8917C220.191 49.4397 219.85 52.1126 219.85 54.9056C219.85 57.5021 220.168 59.9759 220.805 62.3274C221.085 63.2886 221.437 64.2079 221.856 65.0872C220.913 67.2207 219.741 69.223 218.296 71.0412C216.198 73.6811 213.716 75.9165 210.828 77.6195C208.167 79.1885 205.318 80.3232 202.308 81.0074C200.223 81.4813 198.126 81.7775 196.024 81.8939V81.9513H167.212V16.5371ZM192.424 34.9121C194.286 34.9122 195.927 35.1579 197.348 35.6478C198.818 36.1378 200.043 36.9471 201.023 38.0739C202.051 39.1515 202.835 40.6204 203.374 42.481C203.913 44.343 204.181 46.6491 204.181 49.3931L204.16 50.782C204.053 53.9336 203.571 56.41 202.713 58.211C201.733 60.22 200.433 61.6188 198.816 62.4028C197.249 63.1861 195.534 63.5762 193.673 63.5763H187.572V34.9121H192.424ZM175.664 73.4995H194.039C195.62 73.4995 197.215 73.3626 198.823 73.0868L200.434 72.7638C202.321 72.335 204.115 71.6636 205.814 70.7469L206.536 70.3377C208.207 69.3517 209.729 68.0658 211.101 66.4797L211.678 65.7835C213.197 63.8729 214.373 61.5199 215.206 58.7278C215.978 56.2836 216.413 53.4436 216.509 50.2114L216.531 48.8046C216.531 44.4746 215.873 40.688 214.56 37.4458L213.957 36.0892C212.349 32.7353 209.903 30.1117 206.615 28.2224L205.947 27.8564C202.321 25.9454 197.64 24.9889 191.907 24.9889H175.664V73.4995Z" fill="white"/>
<path d="M365.259 78.5134C360.411 77.5203 356.411 75.9258 353.26 73.7297C350.166 71.4956 348.017 68.6795 346.812 65.2817C345.608 61.8839 345.467 57.9288 346.392 53.4165C347.316 48.9042 349 45.3227 351.443 42.6721C353.887 40.0215 356.965 38.3012 360.678 37.5112C364.449 36.683 368.759 36.7655 373.607 37.7585C378.503 38.7614 382.522 40.3849 385.664 42.6289C388.863 44.8348 391.089 47.6415 392.342 51.0492C393.595 54.4569 393.759 58.4169 392.835 62.9292C391.911 67.4415 390.203 71.018 387.711 73.6588C385.22 76.2995 382.064 78.0291 378.246 78.8474C374.484 79.6276 370.156 79.5163 365.259 78.5134ZM366.734 71.3129C370.383 72.0601 373.452 72.2137 375.943 71.7736C378.482 71.3433 380.5 70.2811 381.998 68.5872C383.553 66.855 384.645 64.4528 385.274 61.3806C385.904 58.3084 385.839 55.6942 385.08 53.5381C384.379 51.3438 382.946 49.5498 380.781 48.1559C378.615 46.7621 375.732 45.6965 372.132 44.959C366.804 43.8677 362.68 44.0984 359.761 45.6513C356.842 47.2041 354.906 50.3087 353.952 54.9651C352.998 59.6214 353.558 63.2373 355.632 65.8127C357.705 68.3881 361.406 70.2215 366.734 71.3129ZM359.795 66.3653L363.851 46.5639L372.419 48.319C374.723 48.7909 376.521 49.6593 377.813 50.9242C379.152 52.1989 379.606 53.8923 379.173 56.0045C378.917 57.2526 378.259 58.2681 377.199 59.0512C376.148 59.7863 374.59 60.0674 372.524 59.8945L372.48 60.1105C374.467 60.6674 375.674 61.4899 376.101 62.5777C376.576 63.6755 376.864 64.8348 376.964 66.0557L377.292 69.9492L371.1 68.6808L371.145 65.1638C371.179 64.0204 370.976 63.1786 370.537 62.6384C370.155 62.0601 369.34 61.6431 368.092 61.3875L366.868 61.1367L365.555 67.5452L359.795 66.3653ZM367.738 56.8884L369.394 57.2277C369.874 57.326 370.383 57.4052 370.921 57.4654C371.469 57.4775 371.964 57.3789 372.407 57.1695C372.86 56.9122 373.16 56.4235 373.308 55.7034C373.494 54.7913 373.43 54.128 373.115 53.7133C372.858 53.2604 372.518 52.9658 372.096 52.8293C371.683 52.6448 371.357 52.528 371.117 52.4788L368.741 51.9921L367.738 56.8884Z" fill="#101820"/>
<path d="M392.832 62.9269C393.699 58.6963 393.609 54.9505 392.562 51.6909L392.343 51.0452C391.09 47.6377 388.863 44.831 385.663 42.6252C382.915 40.6617 379.493 39.1736 375.401 38.1603L373.605 37.7557C368.757 36.7629 364.447 36.679 360.676 37.5072C356.964 38.2972 353.886 40.0179 351.442 42.6679L350.994 43.1768C348.792 45.7709 347.258 49.184 346.391 53.4146L346.094 55.0793C345.518 58.9057 345.757 62.3053 346.811 65.2784C348.016 68.6761 350.164 71.4935 353.257 73.7276C356.014 75.6489 359.422 77.1102 363.478 78.1107L365.257 78.5117C369.542 79.3893 373.393 79.5818 376.809 79.0938L378.245 78.8456C381.586 78.1297 384.419 76.7152 386.744 74.6043L387.711 73.6558C389.891 71.3451 391.471 68.3175 392.451 64.5742L392.832 62.9269ZM372.13 44.9562C375.73 45.6936 378.614 46.7592 380.78 48.153C382.945 49.5468 384.376 51.3414 385.077 53.5355C385.836 55.6916 385.902 58.3064 385.273 61.3786L385.015 62.4979C384.363 65.0395 383.356 67.0678 381.995 68.5834C380.498 70.277 378.481 71.3387 375.943 71.7691C373.452 72.2092 370.38 72.0584 366.732 71.3112C361.404 70.2198 357.703 68.3851 355.63 65.8099C353.686 63.3956 353.072 60.0665 353.789 55.8237L353.95 54.9629C354.904 50.3066 356.841 47.1992 359.76 45.6464C362.679 44.094 366.802 43.8652 372.13 44.9562ZM363.848 46.5606L359.792 66.362L365.555 67.5423L366.867 61.1328L368.091 61.3834C369.339 61.639 370.153 62.0569 370.534 62.6349C370.974 63.1749 371.176 64.0164 371.142 65.1589L371.099 68.6779L377.291 69.9461L376.964 66.0509C376.864 64.8306 376.576 63.6707 376.101 62.5735C375.673 61.4859 374.464 60.6627 372.478 60.1059L372.521 59.8914C374.587 60.0644 376.146 59.7817 377.197 59.0467C378.257 58.2636 378.917 57.2484 379.173 56.0004C379.605 53.8888 379.149 52.1967 377.809 50.9222C376.518 49.6579 374.723 48.7882 372.42 48.3163L363.848 46.5606ZM371.117 52.4749C371.357 52.5241 371.682 52.6412 372.093 52.825C372.515 52.9615 372.856 53.2588 373.113 53.7116C373.428 54.1263 373.493 54.7887 373.307 55.7002C373.159 56.4202 372.858 56.9104 372.405 57.1677C371.963 57.3767 371.467 57.4728 370.92 57.4607C370.383 57.4005 369.873 57.3231 369.393 57.2249L367.737 56.8857L368.74 51.9881L371.117 52.4749ZM399.808 65.4255C398.626 70.5092 396.479 75.0722 393.056 78.6996C389.464 82.5069 384.944 84.9242 379.784 86.0299L379.738 86.0423C374.751 87.0767 369.376 86.8579 363.782 85.7122C358.572 84.645 353.853 82.899 349.847 80.2899L349.055 79.7577L349.007 79.7223L348.956 79.6861C344.991 76.8228 342.01 73.1207 340.225 68.6404L339.882 67.7351C338.123 62.7714 338.072 57.4041 339.191 51.9398C340.31 46.4758 342.468 41.5606 346.037 37.6885C349.569 33.8574 354.03 31.4071 359.148 30.3181C364.15 29.2283 369.515 29.4156 375.079 30.5552C380.653 31.6967 385.664 33.6245 389.83 36.5731L389.834 36.5739C393.918 39.3898 397.015 43.0798 398.881 47.5964L399.24 48.5088C401.076 53.5023 401.158 58.9064 400.033 64.4017L399.808 65.4255Z" fill="white"/>
</svg>
