<svg width="256" height="256" viewBox="0 0 256 256" fill="none" xmlns="http://www.w3.org/2000/svg">
<path d="M0 47.4274C0 30.8262 0 22.5257 3.2308 16.1849C6.07269 10.6074 10.6074 6.07269 16.1849 3.2308C22.5257 0 30.8262 0 47.4274 0H208.573C225.174 0 233.474 0 239.815 3.2308C245.393 6.07269 249.927 10.6074 252.769 16.1849C256 22.5257 256 30.8262 256 47.4274V61.979C256 129.893 256 163.85 242.783 189.789C231.157 212.606 212.606 231.157 189.789 242.783C163.85 256 129.893 256 61.9789 256H47.4274C30.8262 256 22.5257 256 16.1849 252.769C10.6074 249.927 6.07269 245.393 3.2308 239.815C0 233.474 0 225.174 0 208.573V47.4274Z" fill="#2C3E50"/>
<path d="M24.2581 100.151C24.2581 99.4438 24.2581 99.0901 24.2641 98.791C24.5851 82.8503 37.4308 70.0046 53.3716 69.6835C53.6707 69.6775 54.0244 69.6775 54.7317 69.6775H105.29C150.043 69.6775 186.323 105.957 186.323 150.71V150.71C186.323 195.463 150.043 231.742 105.29 231.742H54.7317C54.0244 231.742 53.6707 231.742 53.3716 231.736C37.4308 231.415 24.5851 218.569 24.2641 202.629C24.2581 202.329 24.2581 201.976 24.2581 201.268V100.151Z" fill="#FFCC00"/>
<path d="M239.484 51.6128C239.484 69.2859 225.041 83.6128 207.226 83.6128C189.41 83.6128 174.968 69.2859 174.968 51.6128C174.968 33.9397 189.41 19.6128 207.226 19.6128C225.041 19.6128 239.484 33.9397 239.484 51.6128Z" fill="white"/>
<path d="M236.387 49.2902C236.387 55.9888 230.957 61.4192 224.258 61.4192C217.559 61.4192 212.129 55.9888 212.129 49.2902C212.129 42.5915 217.559 37.1611 224.258 37.1611C230.957 37.1611 236.387 42.5915 236.387 49.2902Z" fill="#2C3E50"/>
</svg>
